<mxfile host="app.diagrams.net" modified="2024-04-16T07:17:06.442Z" agent="Mozilla/5.0 (Windows NT 10.0; Win64; x64) AppleWebKit/537.36 (KHTML, like Gecko) Chrome/123.0.0.0 Safari/537.36" etag="-V6o8iNJTSXTUw24sIsT" version="24.1.0" type="device">
  <diagram name="Seite-1" id="z_2dot5QInt8ppIREI61">
    <mxGraphModel dx="1591" dy="941" grid="1" gridSize="10" guides="1" tooltips="1" connect="1" arrows="1" fold="1" page="1" pageScale="1" pageWidth="827" pageHeight="1169" math="0" shadow="0">
      <root>
        <mxCell id="0" />
        <mxCell id="1" parent="0" />
        <mxCell id="L5CR_Bll_L-VFsYANITX-19" value="" style="rounded=1;whiteSpace=wrap;html=1;dashed=1;dashPattern=8 8;" parent="1" vertex="1">
          <mxGeometry x="400" y="260" width="240" height="200" as="geometry" />
        </mxCell>
        <mxCell id="L5CR_Bll_L-VFsYANITX-22" value="&lt;font style=&quot;font-size: 20px;&quot;&gt;Monolith&lt;/font&gt;" style="text;html=1;strokeColor=none;fillColor=none;align=center;verticalAlign=middle;whiteSpace=wrap;rounded=0;" parent="1" vertex="1">
          <mxGeometry x="455" y="270" width="130" height="30" as="geometry" />
        </mxCell>
        <mxCell id="L5CR_Bll_L-VFsYANITX-23" value="Userverwaltung&lt;br&gt;Frontend" style="text;html=1;strokeColor=none;fillColor=none;align=center;verticalAlign=middle;whiteSpace=wrap;rounded=0;fontSize=16;" parent="1" vertex="1">
          <mxGeometry x="490" y="312" width="60" height="30" as="geometry" />
        </mxCell>
        <mxCell id="L5CR_Bll_L-VFsYANITX-24" value="" style="rounded=1;whiteSpace=wrap;html=1;dashed=1;dashPattern=8 8;" parent="1" vertex="1">
          <mxGeometry x="820" y="520" width="240" height="200" as="geometry" />
        </mxCell>
        <mxCell id="L5CR_Bll_L-VFsYANITX-25" value="&lt;font style=&quot;font-size: 20px;&quot;&gt;Category Service&lt;/font&gt;" style="text;html=1;strokeColor=none;fillColor=none;align=center;verticalAlign=middle;whiteSpace=wrap;rounded=0;" parent="1" vertex="1">
          <mxGeometry x="860" y="540" width="165" height="30" as="geometry" />
        </mxCell>
        <mxCell id="L5CR_Bll_L-VFsYANITX-26" value="Categoryverwaltung" style="text;html=1;strokeColor=none;fillColor=none;align=center;verticalAlign=middle;whiteSpace=wrap;rounded=0;fontSize=16;" parent="1" vertex="1">
          <mxGeometry x="857.5" y="571" width="170" height="30" as="geometry" />
        </mxCell>
        <mxCell id="L5CR_Bll_L-VFsYANITX-27" value="" style="rounded=1;whiteSpace=wrap;html=1;dashed=1;dashPattern=8 8;" parent="1" vertex="1">
          <mxGeometry x="820" y="30" width="240" height="200" as="geometry" />
        </mxCell>
        <mxCell id="L5CR_Bll_L-VFsYANITX-28" value="&lt;font style=&quot;font-size: 20px;&quot;&gt;Product Service&lt;/font&gt;" style="text;html=1;strokeColor=none;fillColor=none;align=center;verticalAlign=middle;whiteSpace=wrap;rounded=0;" parent="1" vertex="1">
          <mxGeometry x="867.5" y="40" width="145" height="30" as="geometry" />
        </mxCell>
        <mxCell id="L5CR_Bll_L-VFsYANITX-29" value="Productverwaltung" style="text;html=1;strokeColor=none;fillColor=none;align=center;verticalAlign=middle;whiteSpace=wrap;rounded=0;fontSize=16;" parent="1" vertex="1">
          <mxGeometry x="880" y="72" width="120" height="30" as="geometry" />
        </mxCell>
        <mxCell id="L5CR_Bll_L-VFsYANITX-34" value="&lt;font style=&quot;font-size: 16px;&quot;&gt;Rest&lt;br&gt;get / getall Categories&lt;br style=&quot;border-color: var(--border-color);&quot;&gt;Categories anlegen&lt;br style=&quot;border-color: var(--border-color);&quot;&gt;Categories löschen&lt;br&gt;&lt;/font&gt;" style="text;html=1;strokeColor=none;fillColor=none;align=center;verticalAlign=middle;whiteSpace=wrap;rounded=0;" parent="1" vertex="1">
          <mxGeometry x="605" y="520" width="195" height="30" as="geometry" />
        </mxCell>
        <mxCell id="L5CR_Bll_L-VFsYANITX-35" value="" style="shape=flexArrow;endArrow=classic;startArrow=classic;html=1;rounded=0;entryX=0.017;entryY=0.063;entryDx=0;entryDy=0;entryPerimeter=0;" parent="1" target="L5CR_Bll_L-VFsYANITX-24" edge="1">
          <mxGeometry width="100" height="100" relative="1" as="geometry">
            <mxPoint x="640" y="443.5" as="sourcePoint" />
            <mxPoint x="800" y="490" as="targetPoint" />
          </mxGeometry>
        </mxCell>
        <mxCell id="L5CR_Bll_L-VFsYANITX-36" value="" style="shape=flexArrow;endArrow=classic;startArrow=classic;html=1;rounded=0;entryX=0.5;entryY=1;entryDx=0;entryDy=0;exitX=0.5;exitY=0;exitDx=0;exitDy=0;" parent="1" source="L5CR_Bll_L-VFsYANITX-24" target="L5CR_Bll_L-VFsYANITX-27" edge="1">
          <mxGeometry width="100" height="100" relative="1" as="geometry">
            <mxPoint x="839.5" y="419" as="sourcePoint" />
            <mxPoint x="839.5" y="339" as="targetPoint" />
          </mxGeometry>
        </mxCell>
        <mxCell id="L5CR_Bll_L-VFsYANITX-37" value="Rest&lt;br&gt;Delete Products bei &lt;br&gt;löschen von Category" style="text;html=1;strokeColor=none;fillColor=none;align=center;verticalAlign=middle;whiteSpace=wrap;rounded=0;fontSize=16;" parent="1" vertex="1">
          <mxGeometry x="857.5" y="350" width="360" height="30" as="geometry" />
        </mxCell>
        <mxCell id="L5CR_Bll_L-VFsYANITX-40" value="&lt;font style=&quot;font-size: 16px;&quot;&gt;Rest&lt;br&gt;get / getall Products&lt;br&gt;Products anlegen&lt;br&gt;Products löschen&lt;br&gt;&lt;/font&gt;" style="text;html=1;strokeColor=none;fillColor=none;align=center;verticalAlign=middle;whiteSpace=wrap;rounded=0;" parent="1" vertex="1">
          <mxGeometry x="600" y="180" width="190" height="30" as="geometry" />
        </mxCell>
        <mxCell id="L5CR_Bll_L-VFsYANITX-41" value="" style="shape=flexArrow;endArrow=classic;startArrow=classic;html=1;rounded=0;entryX=0.027;entryY=0.936;entryDx=0;entryDy=0;entryPerimeter=0;" parent="1" target="L5CR_Bll_L-VFsYANITX-27" edge="1">
          <mxGeometry width="100" height="100" relative="1" as="geometry">
            <mxPoint x="640" y="284.5" as="sourcePoint" />
            <mxPoint x="720" y="285.5" as="targetPoint" />
          </mxGeometry>
        </mxCell>
        <mxCell id="jAwa8DwlAfmz7kVQJ7aq-3" value="" style="rounded=1;whiteSpace=wrap;html=1;dashed=1;dashPattern=8 8;" parent="1" vertex="1">
          <mxGeometry x="87" y="30" width="173" height="690" as="geometry" />
        </mxCell>
        <mxCell id="jAwa8DwlAfmz7kVQJ7aq-8" value="&lt;font style=&quot;font-size: 16px;&quot;&gt;Verbindung&amp;nbsp;&lt;/font&gt;&lt;div&gt;&lt;font style=&quot;font-size: 16px;&quot;&gt;mit JDBC&lt;br&gt;&lt;/font&gt;&lt;/div&gt;" style="text;html=1;strokeColor=none;fillColor=none;align=center;verticalAlign=middle;whiteSpace=wrap;rounded=0;" parent="1" vertex="1">
          <mxGeometry x="415" y="605" width="125" height="30" as="geometry" />
        </mxCell>
        <mxCell id="2sbUEzm432ijalAfffBH-2" value="&lt;font style=&quot;font-size: 20px;&quot;&gt;DatenbankServer&lt;/font&gt;" style="text;html=1;strokeColor=none;fillColor=none;align=center;verticalAlign=middle;whiteSpace=wrap;rounded=0;" vertex="1" parent="1">
          <mxGeometry x="108.5" y="280" width="130" height="30" as="geometry" />
        </mxCell>
        <mxCell id="2sbUEzm432ijalAfffBH-3" value="Enthält je eine DB für:&lt;br&gt;Monolith,&lt;br&gt;Category,&lt;br&gt;Product" style="text;html=1;strokeColor=none;fillColor=none;align=center;verticalAlign=middle;whiteSpace=wrap;rounded=0;fontSize=16;" vertex="1" parent="1">
          <mxGeometry x="86" y="305" width="175" height="100" as="geometry" />
        </mxCell>
        <mxCell id="2sbUEzm432ijalAfffBH-4" value="" style="shape=flexArrow;endArrow=classic;startArrow=classic;html=1;rounded=0;exitX=1.005;exitY=0.078;exitDx=0;exitDy=0;exitPerimeter=0;entryX=0;entryY=0.25;entryDx=0;entryDy=0;" edge="1" parent="1" source="jAwa8DwlAfmz7kVQJ7aq-3" target="L5CR_Bll_L-VFsYANITX-27">
          <mxGeometry width="100" height="100" relative="1" as="geometry">
            <mxPoint x="360" y="160" as="sourcePoint" />
            <mxPoint x="480" y="80" as="targetPoint" />
          </mxGeometry>
        </mxCell>
        <mxCell id="2sbUEzm432ijalAfffBH-5" value="" style="shape=flexArrow;endArrow=classic;startArrow=classic;html=1;rounded=0;exitX=1.012;exitY=0.896;exitDx=0;exitDy=0;exitPerimeter=0;entryX=-0.005;entryY=0.629;entryDx=0;entryDy=0;entryPerimeter=0;" edge="1" parent="1" source="jAwa8DwlAfmz7kVQJ7aq-3" target="L5CR_Bll_L-VFsYANITX-24">
          <mxGeometry width="100" height="100" relative="1" as="geometry">
            <mxPoint x="380" y="730" as="sourcePoint" />
            <mxPoint x="700" y="650" as="targetPoint" />
          </mxGeometry>
        </mxCell>
        <mxCell id="2sbUEzm432ijalAfffBH-7" value="" style="shape=flexArrow;endArrow=classic;startArrow=classic;html=1;rounded=0;entryX=0;entryY=0.5;entryDx=0;entryDy=0;" edge="1" parent="1" target="L5CR_Bll_L-VFsYANITX-19">
          <mxGeometry width="100" height="100" relative="1" as="geometry">
            <mxPoint x="260" y="360" as="sourcePoint" />
            <mxPoint x="380" y="420" as="targetPoint" />
          </mxGeometry>
        </mxCell>
        <mxCell id="2sbUEzm432ijalAfffBH-8" value="&lt;font style=&quot;font-size: 16px;&quot;&gt;Verbindung&amp;nbsp;&lt;/font&gt;&lt;div&gt;&lt;font style=&quot;font-size: 16px;&quot;&gt;mit JDBC&lt;br&gt;&lt;/font&gt;&lt;/div&gt;" style="text;html=1;strokeColor=none;fillColor=none;align=center;verticalAlign=middle;whiteSpace=wrap;rounded=0;" vertex="1" parent="1">
          <mxGeometry x="425" y="40" width="125" height="30" as="geometry" />
        </mxCell>
        <mxCell id="2sbUEzm432ijalAfffBH-9" value="&lt;font style=&quot;font-size: 16px;&quot;&gt;Verbindung&amp;nbsp;&lt;/font&gt;&lt;div&gt;&lt;font style=&quot;font-size: 16px;&quot;&gt;mit JDBC&lt;br&gt;&lt;/font&gt;&lt;/div&gt;" style="text;html=1;strokeColor=none;fillColor=none;align=center;verticalAlign=middle;whiteSpace=wrap;rounded=0;" vertex="1" parent="1">
          <mxGeometry x="275" y="313" width="125" height="30" as="geometry" />
        </mxCell>
      </root>
    </mxGraphModel>
  </diagram>
</mxfile>
